<?xml version="1.0" encoding="iso-8859-1"?>
<!-- Generator: Adobe Illustrator 19.0.0, SVG Export Plug-In . SVG Version: 6.00 Build 0)  -->
<svg version="1.1" id="Capa_1" xmlns="http://www.w3.org/2000/svg" xmlns:xlink="http://www.w3.org/1999/xlink" x="0px" y="0px"
	 viewBox="0 0 60 60" style="enable-background:new 0 0 60 60;" xml:space="preserve">
<g>
	<g>
		<path d="M59,4h-3V2c0-0.6-0.4-1-1-1H30H5C4.4,1,4,1.4,4,2v2H1C0.4,4,0,4.4,0,5v37c0,0.6,0.4,1,1,1h43v-2H2V6h2v32c0,0.6,0.4,1,1,1
			h25h14v-2H31V3h1.9v25.9c0,1.4,0.6,2.1,1,2.5c0.8,0.7,1.8,0.6,2.1,0.6h9.5c0.8,0,1,0.3,1.1,0.4c0.4,0.4,0.4,1.2,0.4,1.5V34v15
			c0,0.4,0,0.7-0.2,0.8C46.5,50,46.1,50,46,50H35v2h10.9c0,0,0.1,0,0.2,0c0.4,0,1.3-0.1,1.9-0.7c0.4-0.4,0.9-1.1,0.9-2.3V34.1
			c0.1-0.4,0.2-1.9-0.8-3c-0.5-0.5-1.2-1.1-2.6-1.1h-9.6h-0.1c0,0-0.4,0-0.6-0.2c-0.3-0.2-0.3-0.6-0.3-0.9V3H54v2v32h-2v2h3
			c0.6,0,1-0.4,1-1V6h2v35h-6v2h7c0.6,0,1-0.4,1-1V5C60,4.4,59.6,4,59,4z M6,37V5V3h23v34H6z"/>
		<path d="M30.8,45H15.3c-1.8,0-3.3,1.6-3.3,3.5v6.9c0,2,1.5,3.6,3.3,3.6h15.4c1.6,0,3-1.4,3.3-3.1c0.1-0.1,0.1-0.3,0.1-0.5v-6.9
			C34.1,46.6,32.6,45,30.8,45z M32.1,55C32,55.1,32,55.2,32,55.4c0,0.7-0.6,1.6-1.3,1.6H15.3c-0.7,0-1.3-0.7-1.3-1.6v-6.9
			c0-0.8,0.6-1.5,1.3-1.5h15.5c0.6,0,1.3,0.8,1.3,1.5V55z"/>
		<rect x="27" y="50" width="3" height="2"/>
		<path d="M52,6c0-0.6-0.4-1-1-1H38v2h12v10H38v2h13c0.6,0,1-0.4,1-1V6z"/>
		<rect x="38" y="21" width="13" height="2"/>
		<rect x="38" y="25" width="13" height="2"/>
		<rect x="9" y="21" width="11" height="2"/>
		<rect x="9" y="25" width="16" height="2"/>
		<rect x="9" y="29" width="16" height="2"/>
		<path d="M25,5H10C9.4,5,9,5.4,9,6v11c0,0.6,0.4,1,1,1h15c0.6,0,1-0.4,1-1V6C26,5.4,25.6,5,25,5z M24,16H11V7h13V16z"/>
	</g>
</g>
<g>
</g>
<g>
</g>
<g>
</g>
<g>
</g>
<g>
</g>
<g>
</g>
<g>
</g>
<g>
</g>
<g>
</g>
<g>
</g>
<g>
</g>
<g>
</g>
<g>
</g>
<g>
</g>
<g>
</g>
</svg>
